<?xml version="1.0" encoding="utf-8"?>
<!-- Generator: Adobe Illustrator 15.0.0, SVG Export Plug-In . SVG Version: 6.00 Build 0)  -->
<!DOCTYPE svg PUBLIC "-//W3C//DTD SVG 1.0//EN" "http://www.w3.org/TR/2001/REC-SVG-20010904/DTD/svg10.dtd">
<svg version="1.0" id="Layer_1" xmlns="http://www.w3.org/2000/svg" xmlns:xlink="http://www.w3.org/1999/xlink" x="0px" y="0px"
	 width="180px" height="71px" viewBox="0 0 180 71" style="enable-background:new 0 0 180 71;" xml:space="preserve">
<style type="text/css">
<![CDATA[
	.st0{fill:#FFFFFF;}
	.st1{fill:none;}
]]>
</style>
<rect class="st1" width="180" height="71"/>
<path class="st0" d="M95.555,26.938c-1.664-1.339-4.062-2.35-6.936-2.35c-4.143,0-7.787,1.748-9.749,4.168l-0.187,0.229v-3.908H70.1
	V49.06h8.584V37.117c0-3.684,2.231-5.884,5.971-5.884c3.284,0,5.02,1.633,5.02,4.72V49.06h8.585V33.192
	C98.259,30.485,97.35,28.38,95.555,26.938z"/>
<g>
	<path class="st0" d="M128.567,28.716l-0.062,0.077l-0.122,0.153V28.75v-0.209v-3.464h-8.581V49.06h8.585V37.458
		c0-2.526,1.058-4.37,3.142-5.479c1.505-0.801,3.5-1.207,5.934-1.207c1.615,0,2.961,0.187,3.521,0.277v-6.237
		c-0.83-0.148-1.725-0.224-2.659-0.224C134.116,24.589,130.561,26.261,128.567,28.716z"/>
</g>
<path class="st0" d="M117.713,29.884v-4.807h-6.208v-5.264h-8.585v5.264h-3.545v4.807h3.545v13.454c0,2.135,0.759,3.607,2.318,4.5
	c1.289,0.739,3.143,1.108,5.829,1.161c2.35,0.047,5.269,0.061,6.413,0.061h0.232v-6.416h-0.121
	c-0.669,0.002-2.016,0.005-2.833,0.005c-2.556,0-3.254-0.628-3.254-2.915v-9.85H117.713z"/>
<g>
	<path class="st0" d="M172.71,42.951c0.704-1.515,1.099-3.262,1.176-5.191h-9.247c-0.143,2.312-1.006,4.085-2.513,5.191H172.71z"/>
	<path class="st0" d="M157.605,44.253c-4.551-0.003-7.058-2.699-7.058-7.19s2.507-7.176,7.058-7.178v-0.001h14.387
		c-0.625-0.959-1.4-1.798-2.331-2.49c-2.735-2.038-6.79-3.071-12.051-3.073h-0.005c-5.263,0.002-9.32,1.035-12.055,3.073
		c-2.813,2.095-4.24,5.488-4.24,9.669c0,4.182,1.427,7.587,4.24,9.683c2.734,2.037,6.789,3.071,12.05,3.072
		c5.268-0.001,9.325-1.035,12.061-3.072c0.93-0.692,1.706-1.531,2.329-2.492H157.605z"/>
	<path class="st0" d="M162.131,31.186c1.512,1.108,2.373,2.892,2.509,5.216h9.247c-0.072-1.94-0.467-3.696-1.174-5.216H162.131z"/>
</g>
<g>
	<path class="st0" d="M177.308,49.226c-0.393,0.393-0.866,0.589-1.421,0.589c-0.556,0-1.031-0.196-1.419-0.589
		c-0.388-0.392-0.581-0.867-0.581-1.423c0-0.554,0.194-1.023,0.587-1.415c0.388-0.391,0.86-0.585,1.413-0.585
		c0.555,0,1.028,0.194,1.421,0.585c0.391,0.391,0.587,0.86,0.587,1.415S177.698,48.834,177.308,49.226z M174.668,46.583
		c-0.335,0.339-0.503,0.744-0.503,1.221c0,0.48,0.166,0.891,0.5,1.23c0.336,0.339,0.741,0.507,1.222,0.507
		c0.479,0,0.885-0.168,1.221-0.507c0.335-0.34,0.504-0.75,0.504-1.23c0-0.477-0.169-0.882-0.504-1.221
		c-0.338-0.337-0.744-0.505-1.221-0.505C175.413,46.078,175.004,46.246,174.668,46.583z M175.848,46.698
		c0.271,0,0.476,0.024,0.599,0.076c0.229,0.094,0.346,0.281,0.346,0.562c0,0.194-0.074,0.339-0.217,0.432
		c-0.077,0.049-0.181,0.085-0.317,0.107c0.174,0.026,0.299,0.096,0.376,0.216c0.082,0.116,0.121,0.227,0.121,0.341v0.16
		c0,0.05,0.002,0.103,0.004,0.163c0.003,0.058,0.011,0.097,0.021,0.115l0.015,0.027h-0.363c-0.004-0.008-0.005-0.014-0.008-0.022
		c-0.001-0.006-0.003-0.016-0.005-0.025l-0.007-0.07v-0.174c0-0.253-0.069-0.421-0.209-0.503c-0.084-0.048-0.227-0.073-0.432-0.073
		h-0.307v0.868h-0.39v-2.199H175.848z M176.267,47.043c-0.099-0.056-0.255-0.084-0.471-0.084h-0.331v0.798h0.352
		c0.165,0,0.287-0.017,0.37-0.049c0.151-0.06,0.228-0.174,0.228-0.343C176.414,47.204,176.365,47.097,176.267,47.043z"/>
</g>
<path class="st0" d="M24.978,40.125c-0.929,2.625-3.184,4.126-6.577,4.128c-4.552-0.003-7.059-2.699-7.059-7.19
	s2.507-7.176,7.059-7.178c3.408,0.001,5.669,1.509,6.59,4.15h9.427c-0.539-2.794-1.864-5.08-3.962-6.642
	c-2.735-2.038-6.789-3.071-12.051-3.073H18.4c-5.264,0.002-9.32,1.035-12.054,3.073c-2.814,2.095-4.241,5.488-4.241,9.669
	c0,4.182,1.427,7.587,4.241,9.683c2.733,2.037,6.787,3.071,12.048,3.072c5.268-0.001,9.325-1.035,12.061-3.072
	c2.089-1.557,3.411-3.837,3.955-6.62H24.978z"/>
<path class="st0" d="M57.89,41.881c-1.187,1.526-3.091,2.37-5.635,2.372c-3.792-0.003-6.164-1.873-6.852-5.093h12.428l10.59-0.001
	c0.085-0.673,0.128-1.373,0.128-2.097c-0.001-4.181-1.427-7.574-4.239-9.669c-2.735-2.038-6.789-3.071-12.051-3.073h-0.004
	c-5.265,0.002-9.321,1.035-12.055,3.073c-2.813,2.095-4.24,5.488-4.24,9.669c0,4.182,1.427,7.587,4.24,9.683
	c2.733,2.037,6.788,3.071,12.049,3.072c5.268-0.001,9.325-1.035,12.061-3.072c1.631-1.217,2.796-2.872,3.487-4.864H57.89z
	 M52.255,29.885c3.804,0.002,6.18,1.878,6.856,5.117H45.396C46.073,31.763,48.45,29.887,52.255,29.885z"/>
</svg>
